<mxfile host="app.diagrams.net" modified="2023-07-02T01:59:43.342Z" agent="Mozilla/5.0 (Windows NT 10.0; Win64; x64) AppleWebKit/537.36 (KHTML, like Gecko) Chrome/114.0.0.0 Safari/537.36" etag="JrTzJWRrHCUvNvy35b5O" version="21.5.2" type="device">
  <diagram name="Página-1" id="I7lCNL2RO37NWZgAvi27">
    <mxGraphModel dx="2100" dy="1146" grid="1" gridSize="10" guides="1" tooltips="1" connect="1" arrows="1" fold="1" page="1" pageScale="1" pageWidth="827" pageHeight="1169" math="0" shadow="0">
      <root>
        <mxCell id="0" />
        <mxCell id="1" parent="0" />
        <mxCell id="-wP70iZ09AqcLV-MRNJ7-11" value="" style="strokeWidth=1;shadow=0;dashed=0;align=center;html=1;shape=mxgraph.mockup.containers.browserWindow;rSize=0;strokeColor=#666666;strokeColor2=#008cff;strokeColor3=#c4c4c4;mainText=,;recursiveResize=0;" vertex="1" parent="1">
          <mxGeometry x="110" y="110" width="1079" height="579" as="geometry" />
        </mxCell>
        <mxCell id="-wP70iZ09AqcLV-MRNJ7-12" value="Page 1" style="strokeWidth=1;shadow=0;dashed=0;align=center;html=1;shape=mxgraph.mockup.containers.anchor;fontSize=17;fontColor=#666666;align=left;whiteSpace=wrap;" vertex="1" parent="-wP70iZ09AqcLV-MRNJ7-11">
          <mxGeometry x="60" y="12" width="110" height="26" as="geometry" />
        </mxCell>
        <mxCell id="-wP70iZ09AqcLV-MRNJ7-13" value="https://www.flexbox.com" style="strokeWidth=1;shadow=0;dashed=0;align=center;html=1;shape=mxgraph.mockup.containers.anchor;rSize=0;fontSize=17;fontColor=#666666;align=left;" vertex="1" parent="-wP70iZ09AqcLV-MRNJ7-11">
          <mxGeometry x="130" y="60" width="250" height="26" as="geometry" />
        </mxCell>
        <mxCell id="-wP70iZ09AqcLV-MRNJ7-19" value="&lt;p class=&quot;MsoNormal&quot;&gt;El Módulo de Caja Flexible, comúnmente llamado flexbox, fue&lt;br&gt;diseñado como un modelo unidimensional de layout, y como un método que pueda&lt;br&gt;ayudar a distribuir el espacio entre los ítems de una interfaz y mejorar las&lt;br&gt;capacidades de alineación. Este artículo hace un repaso de las principales&lt;br&gt;características de flexbox, las que exploraremos con mayor detalle en el resto&lt;br&gt;de estas guías.&lt;/p&gt;&lt;p class=&quot;MsoNormal&quot;&gt;&lt;br&gt;&lt;/p&gt;&lt;p class=&quot;MsoNormal&quot;&gt;Cuando describimos a flexbox como unidimensional destacamos&lt;br/&gt;el hecho que flexbox maneja el layout en una sola dimensión a la vez — ya sea&lt;br/&gt;como fila o como columna. Esto contrasta con el modelo bidimensional del Grid&lt;br/&gt;Layout de CSS, el cual controla columnas y filas a la vez.&lt;/p&gt;" style="text;spacingTop=-5;whiteSpace=wrap;html=1;align=left;fontSize=12;fontFamily=Helvetica;fillColor=none;strokeColor=none;" vertex="1" parent="-wP70iZ09AqcLV-MRNJ7-11">
          <mxGeometry x="40" y="250" width="550" height="220" as="geometry" />
        </mxCell>
        <mxCell id="-wP70iZ09AqcLV-MRNJ7-20" value="CONCEPTO" style="strokeWidth=1;shadow=0;dashed=0;align=center;html=1;shape=mxgraph.mockup.text.textBox;fontColor=#666666;align=left;fontSize=17;spacingLeft=4;spacingTop=-3;whiteSpace=wrap;strokeColor=#666666;mainText=" vertex="1" parent="-wP70iZ09AqcLV-MRNJ7-11">
          <mxGeometry x="80" y="210" width="150" height="30" as="geometry" />
        </mxCell>
        <mxCell id="-wP70iZ09AqcLV-MRNJ7-21" value="" style="shape=image;verticalLabelPosition=bottom;labelBackgroundColor=default;verticalAlign=top;aspect=fixed;imageAspect=0;image=data:image/png,iVBORw0KGgoAAAANSUhEUgAAAgoAAACYCAMAAACyLjEGAAAABGdBTUEAALGPC/xhBQAAAAFzUkdCAK7OHOkAAAJtUExURUqQ4tDQ0DMzM/7+/v39/QEBAYu47P///5eXlwAAAN7e3iIiIiYmJgUFBfb29s/Pz2NjYwwMDLOzsw4ODisrK1JSUomJiQcHBxgYGPz8/BEREXt7ewkJCU1NTZaWlqWlpWhoaLi4uDk5ObCwsD09PVGU42Cd5U9PTyMjI6ioqDIyMmZmZnR0dKPG8F9fX2pqara2tjAwMCAgIKOjo8zMzLzW9OLt+kdHR3Z2dhoaGoKCgvn5+eTk5B4eHkpKShYWFkNDQ0yR4nqu6dTl+MTb9U6T4vz9/vT09BwcHPHx8RQUFPj4+Orq6llZWZGRkTY2Nm1tbbW1tdLS0js7O9ra2pCQkMXFxcrKyvDw8JSUlHCo6Gei5mmj54657Pv8/uXv+/f6/ViZ5H2v6ltbW/r7/nSq6KysrMPDw2xsbF1dXfv7++np6YeHh1RUVIyMjFdXV12c5fj7/fH2/GSg5uDs+k2S4lqa5Ja/7oe168DY9G2m58Ha9bnU87TR8/b5/eDg4Kampuzs7GFhYb+/v/Ly8sHBwb29vYODg3BwcO70/Im37Mbd9ujx+9nZ2brV9JrC79Hj98zg9lSW4/T4/abJ8H+x6pC77anK8YOz68ne9mKf5s7g91aX40FBQZmZmSgoKD8/P3p6eu7u7qGhobq6up6enn9/f3x8fNjY2FKV48vf9pK87f3+/tLk916c5c7h95/F76/O8laX5Kurq4WFhbe3t+bm5qenp52dnejo6K2trcfHx+Li4u/v79/f353D79fm+Ozz/N3q+Xit6Y6OjpqamsnJydPT09vb22RkZL/X9KvM8ZycnNXV1dfX1/Y7npoAAAq5SURBVHja7Z2JWxRHGsZhhrb4RgYcBhmcQBCUgAgquhEQARVluCWKypFERTCCIB54a/DAM97GW6OuUePqJkaNcZWYw8TE7CZ/01ZVM5foHGoP4Lzv89h0t/VV9XT9ur63qoeHEAZBUiG4BRBQgIACBBQgoAABBQgoQEABAgoQUICAwqur4j66flChMJQom//4goiinGcjaEzfotmk9LidCCUKeykIOqLUd2i459bn0WiPtfB6qpiXEm8RCobwOf2LgimPsUrvKExViO75jMIKsu4d8/oo7LTOHkwozAk3vCoKtujqCKLofkUhnuYzFqcYXVGwdbf2KdlGFkrTu54J6+5+ab3VtIQxn1DwVAuro9me2xlYiiaKqI62+YuCPjT2gpGE+heFS7SHfUU6E0fhh8vJpqzqcsaG65LYX7r236eZ03fbS16kWCPt4h3TruO9nKNLaK3R6cLYnIKy+IgVz1dbWUZluigVhV9jzHO/dAnr/fj30gpHtnEUZC1TdFdSC2PZo9HmmCliBDCkxqVVh7IxJWTSzZcl2KOWkpIOkaESdL+Pzc2/xk8N032vVtYbzr7INsdcy2NXddcZi9WN5Cd07wQYBS7jhdhQvc8oVCS2xJFd/YvCdZrGwmmvQGE8xU8kGqsmiH+Q1RpnofjtasGnZPwhm8aJQVuhbfzfB3LgLo2jmGRjn4+QJT7XLolCDlEhKdHOMFXXicoUiz1BDKMyoncfGfk50UaPmYzxlG+rE9VMkCWizMQzlLVGXHJaPL95VxibS1VqZWo4H7iIP1wX9AuohDEdmcPYJboaeBSE4loSK7yj0LorjQIsTyiMssSXd9BDjkJkZdZ9FksxdhQoR19jpCS14HhKYFfI1C13cyNoh5rDd1NEK/t+2MPnqo0cRjtsYQKFHgst5c4h3RkmVWqiveVRhU4UKPHLikvUUn7Qohxkzyi5y6ZTqspjKf2febJEGhUYorKExx1KMd1hs0VNdRmf2FEQ4fyK27oTLfRAH0cHSzk4oTaj0qdDAnjb03a1ekDBEJ5qJhpIKCSNpp1xtNwkvUJPYgHlO1BYzthE2ibL5VlpEuu20P+Ek+BDR0mtikINf+bH3bVnx7qMjAx1gBgpBheBwlKyGh5HKVThCPuEF7q3gOggY3udKCQzNsJIkx4/nssf7wjxzN+v7fUKokQX0SPGrpISyS+5Tow1rjZEhnPg+GDACiiVH9d9QLlUFy3P9xsKROZUNyP5PAqmAYbCZeqgCCZQSErnQzBNdKAwQjiESbLcUqKs5GSTemvfJbpsn0HsEX7H2psg5vL9DHcUVvRewhxH2Dx+lD+KTNKKOlDgRqKrt+h1ZrGPRQ4UoimemwMD0d/8krlDuMYHKVcUeDhroRa+FcPaKErNoSrqqKa2/kXB5AEF8YANrASR9B1Pws8ECgYjXfsjmobaUVD4/8f0opBgr+pvdVQwGeyTvJ55BRbKUmvbkZ6ePs8dhd+ocJTQdkfYNl4oYb4ccyqdKDxjrJZohSg6h+VTIicjNM+JwldEfzDexVTKL3lpXxR4ONsjL2MJTyI2i1ln7C7JvUh/sQGbIAaebUyqVYQH4ygkitzQ5kwQLigsN9KeCVxllMPYMpoYw82Z7KKdlfxJXCB6yF0OFJ6KTBDV0dbqCJPazpMBq41zojCen8znk5kRLRk1fJAviGSp1MH9bJaKgt5MOWHl7cLIOFF4mtRlR0GEJxEtYD1lNEUsh3GGlvDOCPhk0i/baJ9MRrUNiMlkkrD7BoHCVIXGLosn8wtQ+JXMkeLnMopr5dOA7+YrPGGLLtpeSAnXZvdNyQ4UeNKwjpzI04YjTNVYsgy3WtxRqCKlfRpdjGSP+L1MJ2Unu0vKJXUGwScTEblEu11RcJlBiPDybFL4bCbfJhILZ/YB0d7+QMF4oS3K98mkY4lpWUT/o1BNuUx6hbZcKntgotC+KGTJaaR8/u8OpUrR1SaD7KLdBdz7ZHe9HIXSdgt3luU2R5haoLtDoeQr7iiweVayTBP29WEuGadxw1oaQ8pVNRH9xu9UWhLzgAKLHFdGSoFYe+C2Y4JwFrsDv8S0zP8lpoGx8OyusC69/0GtNTbPBfIML6y19j8vONljr2uqmnL0BudK4/IKr9eiN0QO0oVnKLgEFCCgAAEFCChAQAECChBQgIACBBQgoAABBQgoQJqjEM6FbXBtgQK23lDAMIkEARSAAlAIZiFBQN5QgIACBBSQICBvKIQHQCwoWhv8KIRoLtfOeYtbG/QJAigENwqMAQWgABSAAhJEMKMA2wgUgAJQQIIACrCNQAEoAAUkCKAA2wgUgAJQQIIACrCNQAEoAAUkCKAA2wgUgAJQQIIACrCNQAEo+Nxa8/tCi4ECEsQQWfw9oADbCBSAAlBAggAKsI1AASgAhcGdII41fLgyJaAo3DkbEBTWNnw9HbbRV50/3LlIBv28ZUaAUNh0aLKeHT+SmaItCjc3dn7MWPGBQw1AwRd9tMilis0pgUDhZFNvYGeDhq2tKXKE6GemIEF41YZit8pnBgCFM87IVac1a+2kK+Ls3FrYRi9a3PRcZIP2KLhqX4pGra352L2hLUDBizLl+Pntk5Q7zf+SkYcDgcLm5hsNh1UIP9eotXOy7E/7G+ozPxV7xe8hQXjWTHGfTsndlNUi8tsAoKB2f/0qsb9onSatnZZF35ezhyfFfn2w4LWNZ09nnlf3jsi7pz0KB3rz9lZ5tF+T1o5KJ7LYPkIUd25cDxR8noE3ThaRn2mPgj0HnZVHmZq0dsAV64ZNs7DE5KPunPj83HE18oz2KDTaD2WGOKRFa7Nu+U4ZbKNDzVsnu/y19wCMCo5JykJxVKRFaw2y5Emg4A8K54vYqy0svIF3ELLphVq0dkKW3IB3EH50ztedakBT0akZZwKEwib7oWz7iBat1cuS6992FN6obZRWsXjLE+GrJAqbtUfhhP3wuO9rP362dkyWPAUUfO+cGbL0TfXgG7G/UXsU/ms3q/LotiatrXb1PY2TN2eeXjMdCcKTbsvksNbFxQVgVNi31mWl08eE7m9rRa4rjHIBo+kYbKMnnZLrzuoS08lAzSDYn/IBXblaw9XGH2XRjbKhhia/hrsgRWG/81VNs/om72gg3kHMrJ8+q3Gflu8g1sohjv27cfHKIT+7r2YgQbz4/Z1a/KfbmUftXyEIzJvJT3tfHO67oVFrjc/dtSMhbyEKb3QGsdUlXhr6phtao1B0xBl5a4hmrR1yu1EL7wAFL0r5xfFNn63rZE4dojUK3xxzsLB6hoZj0JDjzpjONVhi8p5Uf5Sv82/9wnvlM3/MwqujEBKyXr4tWnVmZYiW6WjlzNVqxGR/lx2D9R1EyqYN65v9/LpzyOt+Hb3+o5ubpmvf2roZ6/fXr3udzxZUKLz+ihx+qf7teUkNFGAbgQJQAApIEEABthEoAAWggAQBFGAbgQJQAApIEEABKMA2AgWgABSQIIACbCNQAApAAQkCKMA2AgWgABSQIIACbCNQAApAAQkCKMA2AgWgABSQIIACbCNQGCgoBEAsKFob9AkCCgr5YhshoAABBSSIIBdQgIAChAQBwTZCQAF6lQShLpVhGzxboICtJxQgTCYhCChAQAECChBQgIACBBQgoAABBQgoQEABAgoQUIA00f8BnKayXh0y4d4AAAAASUVORK5CYII=;" vertex="1" parent="-wP70iZ09AqcLV-MRNJ7-11">
          <mxGeometry x="658.05" y="250" width="315.95" height="92" as="geometry" />
        </mxCell>
        <mxCell id="-wP70iZ09AqcLV-MRNJ7-22" value="" style="shape=image;verticalLabelPosition=bottom;labelBackgroundColor=default;verticalAlign=top;aspect=fixed;imageAspect=0;image=data:image/png,iVBORw0KGgoAAAANSUhEUgAAAsUAAADjCAMAAABaf5koAAAABGdBTUEAALGPC/xhBQAAAAFzUkdCAK7OHOkAAAIZUExURUqQ4nt7e4u47DMzMz8/PwEBAf39/v///5eXlwAAAFJSUvr6+gMDA/7+/s/PzwsLC9DQ0CIiIgcHB7i4uBISEvDw8HR0dCYmJhcXF/z8/B4eHg0NDaioqGCd5VaX5BoaGjo6Ovv7+9vb2/j4+MzMzEyR4lGU483h9/r8/uDg4MDAwE1NTaysrAkJCbCwsLOzsxUVFZOTkxAQECsrK9LS0kdHR/3+/snJyXd3d/Ly8vT09I2NjT4+Pmii51ma5Pf6/XOp6Hqu6VtbWzIyMuTk5CAgIGBgYNXV1SkpKWtrazc3N7zW9KTH8NTl+H2v6uLt+js7O5WVlUREROjo6IaGhp6enqOjo/b29pqaml2c5d/r+sTb9WSg5k6T4pCQkIODg2NjY3V1dVBQULa2trq6ukFBQSMjI4657C8vL5e/7sDY9NHj9+Xv+6HF8PT5/Ya161ZWVklJSfPz87y8vObm5ldXV0BAQOLi4pycnOzs7L29ve7u7sXFxVRUVPj7/cbd9pzC72+n6PH2/LrV9MHa9cre9l1dXbnU84Gy66+vr2VlZYGBgXNzc3l5eTY2NoCAgKGhoerq6oqKisvLy97e3u70/Ojx+4m37KrL8ZC77bTR81lZWdjY2KampiQkJDQ0NH5+fsjIyGhoaGei5myl55K87UuQ4q/O8qfJ8VhYWHBwcNfm+Ozz/Nzc3JKSknx8fPX19VCT48PDw0in7MwAAA1bSURBVHja7NyJW1RVHwdw6jrz4xsD5LBDMcAkKIvgAKHAWyCCS5qKKGqKgEqaW7iEppQtauWSC22K5VJPZa/V21/4nnPunRkUHtF8HvRwv9/nEeeMh8Hj/XD5nWVMEYaxPSn8J2ComGGomGGomGGomKFihqFihqFihqFihopnLid5pRjrFQ/wSjG2Kz4ZnuZmnKrCj/76aJ3ialRTMT9arvgrfMUfm4zlFUUhCnmpGLsVzwEwZ5qKgpfSX7GvomhVilupmLFa8ZBSPETFjM2Ke0NKcaiXihmLFe+Czi5eOcbi2d0Fo/gCLxZjseJ6o7ieFQVjb0WxDG6WUTFjreKNnuKNjzmmVGa2xmLFxzzFxx5XcQozO2Ox4mC2pzg7+Jg/a3i5faDYstndbcTTRMVUbKni8wnF51lRULGlFUVJQnEJFVOxnYqjlxwnUxHOdJxLUSqmYkvXKJ70ZCYVU7Gdijm74+yOihkqZkXBsKKgYoaKqZiKqdjCFN/9z5ZyKubszl7Bp7e+aUb633PtnN1RsZV5980Jg/28nIpZUdiXQw8e7XuHFQUVW5c35j809LtUTMW25YAeYvqv7eXFbWfMcPdSMRXblnd0VfybeVj+qR7ur1TM2Z192fbF6mL30T493Lc4u6Nie7P97bV6uB9TMSsKS5eMv/it4qA73DOsKKjYwrRdX5ueHO7HVEzF9t2G14hfF4ypeLZky1p3lPPXfN9+hoo5u7MyBnHwXPt29fhjswfN2R0VW5Z2M8Rf3EaFfvweFbOisCxm627+PLex38f3YtbFFud7swHt7nr8wDUKKrYy35khnjMLbu4JzQoqpmLLss0d4x8HDlR4w91KxZzd2ZbrE0Zqdu/ml/tSMdcobE751vg406+7Z41fpGJWFLZl3mlTD7++td1bMK7wpWLWxbbfjn8+tLfNd2+ApmKGiqmYoWLO7hjO7qiY4RoFw4qCihkqpmKGiqmY4RoFw9kdFTNUzIqCYUVBxQwVM1Rsp2JmtsZHaxSM70LFDBU/J0lN5aX0V+yrKKiYoWKGiqmYoWKG4eyOYfyhmBUFKwoqZqj4+RoTN2q5Az0LFPPYDE8D2S+al5un5KmYoWJWFAwrCipmqJiKqZiKGSrm7I7h7I6Kp0nbWzrFVMw1Covzohnjq6woWBdTMRVTMRVTMRVTsYWK5wKN6rfNADKSz76AlyZ3VX36HnjiZSDI2R0VP/vZnVKcmSZy4zEUrwP2UDEVP5eKa3BKJBIKTVQcPdw7qed9PNhHJHj4MCuKqRUXv+pjxc+iopiDHTIOJ1ML3TiY3Vk1LrLeGZDlzmhDd6zjSLznLTR2Y6WyO+osFRlwqkrLHCcoDcN1NXktVDxB8SefrU2Xg/tW/4+KZ0zxX+iWVNzTiisRGAqhLs1UFK8hFouEUXPC7ZjeicsbkR0VqQzgpvq101QUOflYURJCLRUnFP8w3xvt1rtUPFOKF4Zror+jWituWbVJFQ5Y7inGQHpZCFlux0qEc3LCeEU9XIlIHrrcuvhD/FgqN/urqTiu+ExyuB99QcUzpDirFZX52GAqCmnOWhxCU1zxBpFO3HQ7dmFQZNAsaDR3ApEcV3EZkN9V3ey92j+5ubk9Pp/dTcw35X5U/Cxmd1kXcQx5ohUfHQyjKIBrccUFIiuwyfRrzkRhSUkhAiOqsR64GF+j2BECkO1VFH3qcaHvFX/eVn73tFtWrKbiGVK8EwH0G8UlaKwsrcFrnuKAJBVfhpcd7r04cyy+0jbSNxyOL8Hd7OjoqPJ5RSG/mcYnH+nHb77BimJmFOcEgMtacTSgiglVFzdNobgbjTtVBjE3XdXFnfXYnW4UV944K9IE5LAu9hR/O89tXTet76h4ZhTLHmDM3Itbser8ENQzkxSPBLDQneOhUq9PnApgvVF8og5Vty5hFWd3ccWnvdY2X5UUz17xSkTEKK68hNCdl/DCZMU9iEW99bbf5+KGyB1VU5iK4shwJtC4gIrjit+ON01J8RkVz3yW9T7555SWNXMHOqk4sUi8X7fWcHbH93rYuOsRb67Rrf1UzJOZFir+JN7cqlv7WFFQsc118UHdOkfFk5K+YAkVP+eKv/daxaZ1gIofTlYM2JRnzjI8IiVYNPUB4URu75RpekydJz9Q7EPF33jrxatN6xAVP5xV6LhQ9vSKLwauzqBi3+1Av2cYb/nUt3t308zu8vXWw2MpnuqYeyIfoEUe3YOKn0KxvNM2b/vb3/AcxZSKR5wQfux2Fd9uLao/H5Txn5yNsmSOEz+lfmU0e8VlrVgfcz/l9PfVdZdKS33Rul36T79cVbSuJ0f6MxFZZ3qIbG6M1d9KE/nTST2+Jza4QeSE41zxXs3rr77a2Ujk/RFPcaPzj0if84IUOM7YcKykYfnuWPe4SJXTcCdS+HXQ7xWFuQXP9/OZtkdWFGX6ME6+UXw7hLqAPuK7ErErKxE56fYoqAfqEPYqiixkB7BbFqtPQqBW5Dj0gbWV0qpeJtOtKHqAEPSRiMWYG+gEqkSOAkfdV4v3l4wi3StW5iqO6CPxubghBeqF89V3RKwuhDy9CzhUk69PZPhb8Zp9yeG+/mIKFT+8QNEcQ+3fRvEHOBsdDwfG9fGyVv22CzevIHAkuAgJxeh6rWkkjGppQYdE83GxNyNQc3/JOpw/GT982bPkZhjHleLQKbmKIpElubnuOkiivwxheCyjA42TFf+enqHoByuBE0px/eHgJfT7XHFFcYLxp+0pVDy5Ls7GLlMXF4SwaWxsHdabtw8ZOItyc3NrB8wJyUhS8TKRasTuj2UEcKUBAVUJl6V5dbHu0WIOAw9jUCmeI3INKE1+sUT/BcBtkY0I9U5SXCtpUN8kvUCDUrxIZECfpfe34pSUvd+aN3qc2ZJCxY9QvMA76/uXmarhZfdt9shdqosMcRKKw6rV4vVtqNV32uTsTvc4i7OqeRX1SrGqL5YD0eQXS/SvRY0qdseA8aTie67iJhHglKTrv8Nc/a6QW6jy7+wumbZ3f/l5XkqKTxVPs0YRV5wDtCxUaXDvxaqulf6Ojo6+e2gVSctMKI6Z/wulTnddeOI2AsrotQVasbfStsPcu5eqWmEx3n9YcaL/OFAmshDI8RRXi3zlKm7QijPiitXzX1OxP/MvFEshdkjB2YEyaZ6LxpCuLEw2o2iDunUmFNeJOcE+LhnHekpPhpEqJ2uUtd3okXjN0SQjdTg/QXE0K8ulnOifHsPiYHRU3bGN4p/U90B0xeMr5v/CzYpiasV/IjTajRW9+mhwzj3z9iGd3ggKqwLhBxSrWiP7TicGRC4AP+WjsFdGkb8qqHtEGxEoCaOweYLi5BpFor+aL+ZFgA9dxV0o6t9TQ8XM0yqWvmyEuzN0PfGlNBeamkInIw/h3K4HFeeMhlHXpe6vvRfCyF66XORIJmpOmJW23q5shIZHZErFif6yOQ8YyvLWi684CL3UR8XMv1T8wB7I31M/PcWOXNqYh7xgrMD1eb8gsXw39ogtvHh/kQ1XJjx99PAT7ddRMRXzlDwzu2Z3VMxQMc8XM6woqJihYiqm4tmgmJmt8dEaBeO7UDFDxc9hRcH4IbO9LmaomIoZKqZihoqZ/7d39y5tRWEAh8WUXAIWodhFqAjB6uAm1EVSBCc/4uTg11BwMVqdnIS2aqFFnbV2cEmbDu0f2eQYrZZC46Rv7vMbQjIe7kNy3nMvqrxOd6LYjkJ2FBSL4v/0pFRq/Q0AipUfxR438BxFTMV3RHv4y1PyFIvih99RuNyeL6ZYFFMsiilWThWb7kx3FItiOwrZUVAsiimmmGJRbLp7kEbqyyM5VuyMInyN77WVsSwrnh3VKbajiNnaws1in66+zKdi++LgXby+vfTRdYopjvdNPHZ37Z8opjhco2mVP8/rB293Wu+KLyg23QXrc1rkXDqfmC623v8w3VEc8av4XeX6Q3GxtkmxHUWw0n8xn2t/qH/Lz2xnX9w9rb9qrXG+J49R3C3V0xovKKY4/HC3S7EzisAdpDVu5l6xM4rIDaU1fqHYGUXkDltrfN/+UF38OL+7NpJDxfbFoVu4fb/ua+vD2BDFFMfqQ1pkLX3/1tMjFTXTHcXRDoy30yq3qpXl3l/pbZVi0120qn+td6thuqM4XEd3lrudl12xM4ruqnfnz2pX1tz1oDhky6uHV2td3G30UExx1CrTm+cHlfze9aBYFJvuZLqjWBTbUVBsXyyKKRbFFIti0x3F4aa78myh0N9U3F8ozJYppjjmGcVw6bphOwqKg+4oTm4Un1BMcVDFkzeKJymmOKji4kAb8UCRYoqjnlHstRXvdXxGoW4t7h3opbbipUyKqnimrXim07seykPR7npMJMQTGcWKq/g0KT6lWIEVbyTFGxQrsOJyXxNxX9mFU9zpLssum4ovXSqFVjzVVDx1j98X2VE8vu75fLEofowNlgYzihVb8XHpmGIFVzxeGnfZFHu6y/af7btSCq44e3Ov3xfZUTzGnlOs8Io7WNPV46de8/JKsVeKJdOdRLFEsSiWKJYoligWxRLFEsUSxaJYoliiWPpnvwG3/5V8ImGlzQAAAABJRU5ErkJggg==;" vertex="1" parent="-wP70iZ09AqcLV-MRNJ7-11">
          <mxGeometry x="649.03" y="370" width="334" height="106.94" as="geometry" />
        </mxCell>
        <mxCell id="-wP70iZ09AqcLV-MRNJ7-14" value="" style="strokeWidth=1;shadow=0;dashed=0;align=center;html=1;shape=mxgraph.mockup.rrect;rSize=10;fillColor=#ffffff;strokeColor=#666666;" vertex="1" parent="-wP70iZ09AqcLV-MRNJ7-11">
          <mxGeometry x="264" y="140" width="500" height="50" as="geometry" />
        </mxCell>
        <mxCell id="-wP70iZ09AqcLV-MRNJ7-15" value="FLEXBOX" style="strokeColor=inherit;fillColor=inherit;gradientColor=inherit;strokeWidth=1;shadow=0;dashed=0;align=center;html=1;shape=mxgraph.mockup.rrect;rSize=0;fontSize=17;fontColor=#666666;fontStyle=1;resizeHeight=1;whiteSpace=wrap;" vertex="1" parent="-wP70iZ09AqcLV-MRNJ7-14">
          <mxGeometry width="125" height="50" relative="1" as="geometry">
            <mxPoint x="125" as="offset" />
          </mxGeometry>
        </mxCell>
        <mxCell id="-wP70iZ09AqcLV-MRNJ7-16" value="MOCKUP" style="strokeColor=inherit;fillColor=inherit;gradientColor=inherit;strokeWidth=1;shadow=0;dashed=0;align=center;html=1;shape=mxgraph.mockup.rrect;rSize=0;fontSize=17;fontColor=#666666;fontStyle=1;resizeHeight=1;whiteSpace=wrap;" vertex="1" parent="-wP70iZ09AqcLV-MRNJ7-14">
          <mxGeometry width="125" height="50" relative="1" as="geometry">
            <mxPoint x="250" as="offset" />
          </mxGeometry>
        </mxCell>
        <mxCell id="-wP70iZ09AqcLV-MRNJ7-17" value="ACERCA DE" style="strokeColor=inherit;fillColor=inherit;gradientColor=inherit;strokeWidth=1;shadow=0;dashed=0;align=center;html=1;shape=mxgraph.mockup.rightButton;rSize=10;fontSize=17;fontColor=#666666;fontStyle=1;resizeHeight=1;whiteSpace=wrap;" vertex="1" parent="-wP70iZ09AqcLV-MRNJ7-14">
          <mxGeometry x="1" width="139" height="50" relative="1" as="geometry">
            <mxPoint x="-125" as="offset" />
          </mxGeometry>
        </mxCell>
        <mxCell id="-wP70iZ09AqcLV-MRNJ7-18" value="INICIO" style="strokeWidth=1;shadow=0;dashed=0;align=center;html=1;shape=mxgraph.mockup.leftButton;rSize=10;fontSize=17;fontColor=#ffffff;fontStyle=1;fillColor=#008cff;strokeColor=#008cff;resizeHeight=1;whiteSpace=wrap;" vertex="1" parent="-wP70iZ09AqcLV-MRNJ7-14">
          <mxGeometry width="125" height="50" relative="1" as="geometry" />
        </mxCell>
      </root>
    </mxGraphModel>
  </diagram>
</mxfile>
